Jump_normalized_precision_landing03_filtered_grf
version=1
nRows=22
nColumns=37
inDegrees=yes
endheader
time		1_ground_force_vx		1_ground_force_vy		1_ground_force_vz		1_ground_force_px		1_ground_force_py		1_ground_force_pz		1_ground_torque_x		1_ground_torque_y		1_ground_torque_z		2_ground_force_vx		2_ground_force_vy		2_ground_force_vz		2_ground_force_px		2_ground_force_py		2_ground_force_pz		2_ground_torque_x		2_ground_torque_y		2_ground_torque_z		3_ground_force_vx		3_ground_force_vy		3_ground_force_vz		3_ground_force_px		3_ground_force_py		3_ground_force_pz		3_ground_torque_x		3_ground_torque_y		3_ground_torque_z		4_ground_force_vx		4_ground_force_vy		4_ground_force_vz		4_ground_force_px		4_ground_force_py		4_ground_force_pz		4_ground_torque_x		4_ground_torque_y		4_ground_torque_z		
0.409500		0.000000		-0.000000		-0.000000		0.145274		0.000000		0.289941		-0.000000		-0.000000		0.000000		-0.000000		-0.000000		-0.000000		-0.178967		0.000000		0.303654		-0.000000		0.000000		-0.000000		-71.467091		526.152636		-17.969875		0.381620		1.274027		1.886377		2.482832		-18.279023		0.624290		92.331397		592.588483		-44.762918		-0.352278		1.266567		1.874641		5.195466		33.344815		-2.518799		
0.412758		0.000000		-0.000000		-0.000000		0.145274		0.000000		0.289941		-0.000000		-0.000000		0.000000		-0.000000		-0.000000		-0.000000		-0.178967		0.000000		0.303654		-0.000000		0.000000		-0.000000		-70.334791		525.569109		-20.407342		0.381605		1.274043		1.886462		2.453883		-18.336381		0.711986		89.325314		592.529253		-46.305358		-0.352246		1.266601		1.874800		5.052212		33.513308		-2.619023		
0.416015		0.000000		-0.000000		-0.000000		0.145274		0.000000		0.289941		-0.000000		-0.000000		0.000000		-0.000000		-0.000000		-0.000000		-0.178967		0.000000		0.303654		-0.000000		0.000000		-0.000000		-69.071029		524.640003		-22.687423		0.381571		1.274061		1.886563		2.419778		-18.379816		0.794813		86.057646		592.099701		-47.915521		-0.352236		1.266629		1.874933		4.894657		33.676559		-2.725267		
0.419273		0.000000		-0.000000		-0.000000		0.145274		0.000000		0.289941		-0.000000		-0.000000		0.000000		-0.000000		-0.000000		-0.000000		-0.178967		0.000000		0.303654		-0.000000		0.000000		-0.000000		-67.744055		523.334498		-24.875504		0.381527		1.274078		1.886679		2.382629		-18.406220		0.874899		82.545595		591.298734		-49.561291		-0.352249		1.266645		1.875028		4.722390		33.827937		-2.835383		
0.422530		-0.000000		0.000000		0.000000		0.145274		0.000000		0.289941		0.000000		0.000000		-0.000000		0.000000		-0.000000		-0.000000		-0.178967		0.000000		0.303654		-0.000000		0.000000		-0.000000		-66.426908		521.627604		-27.128365		0.381483		1.274092		1.886814		2.344724		-18.412307		0.957572		78.834285		590.152563		-51.208941		-0.352282		1.266644		1.875085		4.536482		33.960064		-2.946796		
0.425788		-0.000000		0.000000		0.000000		0.145274		0.000000		0.289941		0.000000		0.000000		-0.000000		0.000000		0.000000		0.000000		-0.178967		0.000000		0.303654		0.000000		-0.000000		0.000000		-65.168037		519.511907		-29.694213		0.381450		1.274104		1.886970		2.307531		-18.395365		1.051442		74.990106		588.656819		-52.832835		-0.352324		1.266628		1.875114		4.339766		34.066322		-3.057507		
0.429045		-0.000000		0.000000		0.000000		0.145274		0.000000		0.289941		0.000000		0.000000		-0.000000		0.000000		0.000000		0.000000		-0.178967		0.000000		0.303654		0.000000		-0.000000		0.000000		-63.969479		517.042646		-32.744754		0.381437		1.274114		1.887139		2.271055		-18.356132		1.162510		71.079202		586.762183		-54.441958		-0.352360		1.266609		1.875139		4.136039		34.143214		-3.167935		
0.432303		-0.000000		0.000000		0.000000		0.145274		0.000000		0.289941		0.000000		0.000000		-0.000000		0.000000		0.000000		0.000000		-0.178967		0.000000		0.303654		0.000000		-0.000000		0.000000		-62.797663		514.325621		-36.349556		0.381444		1.274123		1.887316		2.234298		-18.299352		1.293294		67.104024		584.375061		-56.081167		-0.352387		1.266595		1.875177		3.926050		34.190046		-3.281146		
0.435561		-0.000000		0.000000		0.000000		0.145274		0.000000		0.289941		0.000000		0.000000		-0.000000		0.000000		0.000000		0.000000		-0.178967		0.000000		0.303654		0.000000		-0.000000		0.000000		-61.601124		511.504846		-40.414082		0.381467		1.274128		1.887493		2.195916		-18.233787		1.440656		63.020593		581.413865		-57.796291		-0.352408		1.266595		1.875235		3.707998		34.209186		-3.400616		
0.438818		0.000000		-0.000000		-0.000000		0.145274		0.000000		0.289941		-0.000000		-0.000000		0.000000		-0.000000		0.000000		0.000000		-0.178967		0.000000		0.303654		0.000000		-0.000000		0.000000		-60.339293		508.725158		-44.699531		0.381496		1.274132		1.887665		2.154999		-18.168964		1.596432		58.770061		577.843680		-59.602088		-0.352435		1.266610		1.875310		3.478732		34.203945		-3.527994		
0.442076		0.000000		-0.000000		-0.000000		0.145274		0.000000		0.289941		-0.000000		-0.000000		0.000000		-0.000000		-0.000000		-0.000000		-0.178967		0.000000		0.303654		-0.000000		0.000000		-0.000000		-58.998365		506.098534		-48.972107		0.381520		1.274133		1.887828		2.111338		-18.111433		1.752535		54.352763		573.713028		-61.457020		-0.352470		1.266637		1.875390		3.237884		34.177081		-3.661104		
0.445333		0.000000		-0.000000		-0.000000		0.145274		0.000000		0.289941		-0.000000		-0.000000		0.000000		-0.000000		-0.000000		-0.000000		-0.178967		0.000000		0.303654		-0.000000		0.000000		-0.000000		-57.581642		503.689707		-53.079532		0.381531		1.274130		1.887983		2.064975		-18.063168		1.903524		49.839077		569.130809		-63.285182		-0.352505		1.266677		1.875472		2.988668		34.128793		-3.794997		
0.448591		0.000000		-0.000000		-0.000000		0.145274		0.000000		0.289941		-0.000000		-0.000000		0.000000		-0.000000		-0.000000		-0.000000		-0.178967		0.000000		0.303654		-0.000000		0.000000		-0.000000		-56.099689		501.504986		-57.028655		0.381529		1.274118		1.888127		2.016079		-18.022808		2.049465		45.353388		564.240991		-65.003482		-0.352520		1.266734		1.875559		2.737547		34.057859		-3.923644		
0.451848		0.000000		-0.000000		-0.000000		0.145274		0.000000		0.289941		-0.000000		-0.000000		0.000000		-0.000000		-0.000000		-0.000000		-0.178967		0.000000		0.303654		-0.000000		0.000000		-0.000000		-54.561104		499.496680		-60.976204		0.381517		1.274099		1.888261		1.964938		-17.988645		2.195971		40.972974		559.172613		-66.582934		-0.352503		1.266807		1.875658		2.488648		33.963558		-4.044182		
0.455106		-0.000000		0.000000		0.000000		0.145274		0.000000		0.289941		0.000000		0.000000		-0.000000		0.000000		-0.000000		-0.000000		-0.178967		0.000000		0.303654		-0.000000		0.000000		-0.000000		-52.972782		497.578861		-65.082938		0.381500		1.274076		1.888390		1.912058		-17.960164		2.349177		36.718093		554.010200		-68.046129		-0.352446		1.266897		1.875778		2.243328		33.847873		-4.157357		
0.458364		-0.000000		0.000000		0.000000		0.145274		0.000000		0.289941		0.000000		0.000000		-0.000000		0.000000		0.000000		0.000000		-0.178967		0.000000		0.303654		0.000000		-0.000000		0.000000		-51.350129		495.641543		-69.478618		0.381484		1.274060		1.888521		1.858267		-17.936367		2.514308		32.543143		548.782706		-69.459601		-0.352357		1.267000		1.875924		1.999335		33.715366		-4.267368		
0.461621		-0.000000		0.000000		0.000000		0.145274		0.000000		0.289941		0.000000		0.000000		-0.000000		0.000000		0.000000		0.000000		-0.178967		0.000000		0.303654		0.000000		-0.000000		0.000000		-49.715857		493.572787		-74.186457		0.381467		1.274057		1.888661		1.804316		-17.913028		2.692420		28.333939		543.476390		-70.926779		-0.352259		1.267102		1.876091		1.750217		33.571221		-4.381239		
0.464879		-0.000000		0.000000		0.000000		0.145274		0.000000		0.289941		0.000000		0.000000		-0.000000		0.000000		0.000000		0.000000		-0.178967		0.000000		0.303654		0.000000		-0.000000		0.000000		-48.093665		491.270067		-79.148716		0.381449		1.274072		1.888812		1.750518		-17.881305		2.880867		24.030376		538.053648		-72.511709		-0.352170		1.267196		1.876268		1.492497		33.417986		-4.503635		
0.468136		-0.000000		0.000000		0.000000		0.145274		0.000000		0.289941		0.000000		0.000000		-0.000000		0.000000		0.000000		0.000000		-0.178967		0.000000		0.303654		0.000000		-0.000000		0.000000		-46.492334		488.645020		-84.293678		0.381427		1.274106		1.888975		1.696404		-17.829592		3.075694		19.597461		532.463539		-74.241074		-0.352102		1.267273		1.876451		1.223889		33.253275		-4.636488		
0.471394		0.000000		-0.000000		-0.000000		0.145274		0.000000		0.289941		-0.000000		-0.000000		0.000000		-0.000000		0.000000		0.000000		-0.178967		0.000000		0.303654		0.000000		-0.000000		0.000000		-44.893566		485.634662		-89.514353		0.381399		1.274149		1.889142		1.640731		-17.748559		3.271494		15.074504		526.644453		-76.065684		-0.352049		1.267333		1.876629		0.946558		33.069250		-4.776348		
0.474652		0.000000		-0.000000		-0.000000		0.145274		0.000000		0.289941		-0.000000		-0.000000		0.000000		-0.000000		-0.000000		-0.000000		-0.178967		0.000000		0.303654		-0.000000		0.000000		-0.000000		-43.263293		482.184892		-94.729531		0.381369		1.274193		1.889308		1.582245		-17.634688		3.464493		10.489544		520.521486		-77.906250		-0.352004		1.267381		1.876803		0.662058		32.853568		-4.917185		
0.477909		0.000000		-0.000000		-0.000000		0.145274		0.000000		0.289941		-0.000000		-0.000000		0.000000		-0.000000		-0.000000		-0.000000		-0.178967		0.000000		0.303654		-0.000000		0.000000		-0.000000		-41.567865		478.250050		-99.855001		0.381338		1.274232		1.889465		1.520236		-17.490749		3.651936		5.838296		514.010153		-79.677463		-0.351955		1.267420		1.876971		0.370193		32.592601		-5.052229		
